<?xml version="1.0" encoding="UTF-8"?> <svg xmlns="http://www.w3.org/2000/svg" xmlns:xlink="http://www.w3.org/1999/xlink" viewBox="0 0 96.9 52.8"><defs><clipPath id="a" transform="translate(-1.8)"><path fill="none" d="M1.2.7h98v52h-98z"></path></clipPath><clipPath id="b" transform="translate(-1.8)"><path fill="none" d="M34.1-.1H65v34.4H34.1z"></path></clipPath><clipPath id="c" transform="translate(-1.8)"><path fill="none" d="M35.5 12.4H45v18.9h-9.5z"></path></clipPath><clipPath id="d" transform="translate(-1.8)"><path fill="none" d="M42.6 8h10.9v12.3H42.6z"></path></clipPath><clipPath id="e" transform="translate(-1.8)"><path fill="none" d="M44.2 11.1h3.6v3.1h-3.6z"></path></clipPath><clipPath id="f" transform="translate(-1.8)"><path fill="none" d="M48.4 6.5h14.1v6.3H48.4z"></path></clipPath><clipPath id="g" transform="translate(-1.8)"><path fill="none" d="M47.9 6.9h5.7v2.4h-5.7z"></path></clipPath><clipPath id="h" transform="translate(-1.8)"><path fill="none" d="M50.5 20.3h8.8v6.8h-8.8z"></path></clipPath><clipPath id="i" transform="translate(-1.8)"><path fill="none" d="M50.5 23.1h8.9v6.4h-8.9z"></path></clipPath><clipPath id="j" transform="translate(-1.8)"><path fill="none" d="M58.8 3.3h2.8v4.4h-2.8z"></path></clipPath><clipPath id="k" transform="translate(-1.8)"><path fill="none" d="M47 23.5h7.8v7.2H47z"></path></clipPath></defs><g clip-path="url(#a)"><g clip-path="url(#a)"><path d="M48.5 27.1c-22 0-47.4 7.4-48.5 7.7l5 17.1c.1 0 5-1.4 12-3l-1.2-.8-.9-.6 1-.3c.8-.1 17.9-4.1 32.6-4.1 14.7 0 31.7 4 32.5 4.1l1 .3-.9.6-1.2.8c7 1.6 12 3 12 3l5-17.1c-1-.3-26.4-7.7-48.4-7.7" fill="#d22b27"></path></g><path d="M6.5 37.4q1.1 1 2.2 2.3l1.4-2.9a15.2 15.2 0 0 1 2 1.4q-1 2-1.7 3l2.5 2.3a16 16 0 0 1-1.4 2.3l-2-2.2-1.3 3a14 14 0 0 1-2-1.4 33 33 0 0 1 1.4-3.4l-2.5-2.3a5.3 5.3 0 0 1 1.4-2z" fill="#fff"></path><path d="M16.5 38l.4 2.1-4 1.2-.7-2.1 4.3-1.1zM22.6 36.5a3 3 0 0 1-1.7 3.7l-1 .4q.2 1.3.7 3a10.7 10.7 0 0 1-2.3 1l-1.2-7-.4-1.8a7.1 7.1 0 0 1 3.5-1.3 2.5 2.5 0 0 1 2.4 2zm-3 2.4q1.4-.6 1.3-1.4a1 1 0 0 0-.5-.8 1.4 1.4 0 0 0-1.2.2l.3 2zM27.7 34.2a6.3 6.3 0 0 1 1.3 2 6.8 6.8 0 0 1 .4 1.6q.3 4.7-3.5 5a2.6 2.6 0 0 1-2-1.2 5.3 5.3 0 0 1-.7-1.8 7.3 7.3 0 0 1-.2-2.3 7.6 7.6 0 0 1 .3-1.5 3.5 3.5 0 0 1 .4-.8q1.7-2.9 4-1zm-2.5 5.2c.3.8.7 1.2 1.2 1.1.5 0 .8-.3 1-1a3.4 3.4 0 0 0-.2-2q-.5-1.3-1.2-1.2-.8.3-1 1.7a3.7 3.7 0 0 0 .2 1.4zM32.2 32.5a3 3 0 0 1 1.6.3 2 2 0 0 1 1 .9q.8 1.8-1.2 3.8a21.1 21.1 0 0 0 2.5 2.2l-1.6 2.1-2.2-2.8.3 3a9.4 9.4 0 0 1-2.4-.4l-.7-7.7a5.2 5.2 0 0 1 2.7-1.4zm-.4 2.9c0 .3 0 .7.2 1.3l.2-.2q.8-.7.7-1.2c0-.3-.1-.4-.4-.3a1.7 1.7 0 0 0-.7.4zM41.4 31.7a10.8 10.8 0 0 1 0 2.3 16 16 0 0 0-1.8.3q0 2.2.5 6.5a17.3 17.3 0 0 1-2.1.4l-.4-6.7a17.6 17.6 0 0 0-2 .4 13.9 13.9 0 0 1-.3-2.5l6.1-.7zM50.2 33.9a3 3 0 0 1-2.3 3.3c-.6 0-1 .2-1.1.2l.1 3a10.7 10.7 0 0 1-2.4.6v-7.2V32a7.1 7.1 0 0 1 3.7-.5 2.4 2.4 0 0 1 2 2.4zm-3.5 1.7q1.6-.3 1.7-1.1a1 1 0 0 0-.4-.9 1.4 1.4 0 0 0-1.3 0v2zM53.4 34.7l-.8 5.8a6 6 0 0 1-1.4.2h-.7v-6a8.5 8.5 0 0 1 2.9 0zm-.7-3.3q1.6 1 .3 2.4a2.8 2.8 0 0 1-1.6.2 1.4 1.4 0 0 1-.8-.6 1.2 1.2 0 0 1-.1-.8 1.3 1.3 0 0 1 1-1.1 3.5 3.5 0 0 1 1.2 0zM61.8 32.3a22.2 22.2 0 0 1-.3 2.4 27.3 27.3 0 0 1-3.3 3.2 25.2 25.2 0 0 1 3.1.2 13.9 13.9 0 0 1-.6 2.9 62.2 62.2 0 0 0-7-.4l.2-3a35.3 35.3 0 0 0 4-3q-2.8 0-3.8-.2a21.3 21.3 0 0 1 .4-2.6l7.3.5zM70 33.4a22.1 22.1 0 0 1-.3 2.4 27.4 27.4 0 0 1-3.6 3 25.5 25.5 0 0 1 3.2.4 13.8 13.8 0 0 1-.8 2.8 62.4 62.4 0 0 0-7-.8q0-1.2.3-3a35.3 35.3 0 0 0 4.2-2.7l-3.7-.4a21.2 21.2 0 0 1 .5-2.6q3.7.4 7.3 1zM76.2 34.2a9.6 9.6 0 0 1-.6 2.3 23 23 0 0 0-3.2-.3 7.6 7.6 0 0 0-.2.8 12.6 12.6 0 0 1 1.8.2l-.3 1.8-1.7-.1-.1.9a7.3 7.3 0 0 0 1 0 18 18 0 0 1 2 .2 12.4 12.4 0 0 1-.2 2.7l-5.4-.4.3-1.5.6-4.3.2-1a20 20 0 0 1 .2-2q3 .5 5.6.7zM80 35.1a3 3 0 0 1 1.4.7 2 2 0 0 1 .7 1.3q0 1.9-2.4 3.1a21.3 21.3 0 0 0 1.6 3L79 44.5l-1.2-3.3-.6 3A9.4 9.4 0 0 1 75 43l1.8-7.5a5.2 5.2 0 0 1 3-.4zm-1.4 2.5l-.2 1.4.2-.1q1-.4 1.1-1c0-.2 0-.4-.2-.4a1.7 1.7 0 0 0-.9.1zM85.3 39.5l-1.8 5.6a6 6 0 0 1-1.5 0l-.6-.2q.2-2 1-6a8.5 8.5 0 0 1 2.9.6zm0-3.3q1.4 1.3-.2 2.4a2.8 2.8 0 0 1-1.6 0 1.4 1.4 0 0 1-.7-.8 1.2 1.2 0 0 1 0-.8 1.3 1.3 0 0 1 1.3-1 3.6 3.6 0 0 1 1.1.2zM91.1 37.7v.7l-.5 8a4.7 4.7 0 0 1-2.1 0v-2.1a4.5 4.5 0 0 0-1-.3l-1 1.8a3.4 3.4 0 0 1-2.2-.8l1.8-3.2 1.3-2.3 1.1-2a4.2 4.2 0 0 1 2.6.2zm-2.2 3l-.9 1.8.8.2a19.3 19.3 0 0 0 .1-2z" fill="#fff"></path><g clip-path="url(#a)"><path d="M17.3 52.8l1.7-3.1-3-2c.8-.2 17.8-4.1 32.5-4.1s31.6 4 32.4 4.1l-3 2 1.8 3c-.2 0-17.2-4-31.2-4s-31 4-31.2 4" fill="#38783a"></path></g><path d="M23.4 50l-.4.1-.4-1.8-.4.1v-.3l1.2-.3v.4H23zM25.3 48.3l-.1-.8h.4l.4 2-.4.1-.2-1-.7.2.1 1h-.4l-.3-2.1h.4l.1.8zM26.9 47.6v.5l.7-.1v.3l-.6.1.1.6.7-.1v.3l-1 .2-.4-2.1 1-.2.1.4zM29.6 46.8l.5-.1c.4 0 .6 0 .7.5a.5.5 0 0 1-.1.4.5.5 0 0 1 .4.5.6.6 0 0 1-.5.7l-.7.1zm.5.8c.3 0 .4-.1.3-.3 0-.2-.1-.3-.3-.3zm.2 1c.3-.1.5-.2.4-.5 0-.2-.2-.2-.4-.2h-.1zM32.1 46.8v.5l.7-.1v.3l-.6.1.1.6h.7v.3l-1 .1-.3-2.1 1-.2v.4zM34.5 46.6a.4.4 0 0 0-.3-.2.2.2 0 0 0-.2.3c0 .4.8.1 1 .8a.7.7 0 0 1-.7.9.7.7 0 0 1-.6-.4l.2-.3a.4.4 0 0 0 .4.3.3.3 0 0 0 .2-.3c0-.3-.2-.3-.4-.4-.3 0-.5-.2-.5-.5a.6.6 0 0 1 .5-.7.8.8 0 0 1 .6.2zM36.4 48l-.4.1-.2-1.8h-.4V46l1.2-.1v.3h-.4zM39 46v.5h.7v.3h-.6l.1 1h-.4l-.2-2.1 1-.1v.3zM40.8 47.2l-.1.4h-.4l.6-2.2h.3l1 2.1h-.5l-.2-.4zm.3-1.2l-.2.8h.5zM43.7 45.8a.4.4 0 0 0-.4-.2.2.2 0 0 0-.2.3c0 .3.8.1.9.8a.7.7 0 0 1-.7.8.7.7 0 0 1-.6-.4l.2-.2a.4.4 0 0 0 .4.3.3.3 0 0 0 .3-.4c0-.2-.3-.3-.4-.3-.3-.1-.5-.2-.5-.6a.6.6 0 0 1 .6-.7.8.8 0 0 1 .5.3zM45.4 47.4H45v-1.8h-.5v-.4h1.2v.4h-.4zM48.2 45.5v.5h.6v.4h-.6v1h-.4v-2.2h1v.3zM50.5 47.4a1.1 1.1 0 1 1 1-1.1 1 1 0 0 1-1 1zm0-1.9a.7.7 0 0 0-.6.7c0 .4.1.8.6.8.4 0 .6-.4.6-.7a.7.7 0 0 0-.6-.8zM53.1 47.5a1.1 1.1 0 1 1 1.1-1 1 1 0 0 1-1 1zm.1-1.9a.7.7 0 0 0-.6.7c0 .3.1.8.5.8.5 0 .7-.4.7-.7a.7.7 0 0 0-.6-.8zM55 45.4h.6a1 1 0 0 1-.2 2.2h-.6zm.3 1.8a.7.7 0 0 0 .1-1.4zM58.8 47.9h-.4l.3-2.2h.4zM60 45.8h.2l1 1.6V46h.5l-.3 2.2h-.3l-.9-1.7-.1 1.5h-.4zM64.2 48.5h-.4l.3-1.8h-.4v-.4l1.2.1v.4h-.4zM66.2 48.9a1.1 1.1 0 1 1 1.2-1 1 1 0 0 1-1.2 1zm.3-1.9a.7.7 0 0 0-.2 1.4c.4.1.6-.3.7-.6a.7.7 0 0 0-.5-.8zM68.7 48.5l.6-1.4h.3l.1 1.6.7-1.4h.4l-1 2.1h-.3l-.2-1.5-.6 1.3h-.3l-.3-2.3h.4zM71.5 47.4h.3l.8 1.7.2-1.4h.4l-.4 2.2h-.3l-.8-1.7-.2 1.4H71zM74.2 50a.2.2 0 1 1-.5-.1.2.2 0 1 1 .5 0zm0-2h.3l-.3 1.5H74z" fill="#fff"></path><path d="M26 21.4v.4h.7v.5H26v.4h.7v.5h-1.3v-2.3h1.3v.5zM28.2 21.5a.6.6 0 0 0-.4-.1l-.2.1c0 .2.1.2.2.3h.2c.3 0 .5.2.5.6a.8.8 0 0 1-.2.6 1 1 0 0 1-.6.2 1.4 1.4 0 0 1-.8-.2l.2-.5a.8.8 0 0 0 .6.2s.2 0 .2-.2-.2-.2-.3-.3c-.4 0-.6-.1-.6-.6a.7.7 0 0 1 .7-.7 1.5 1.5 0 0 1 .7.2zM29.7 23.2H29v-1.8h-.5V21h1.6v.5h-.5zM30.7 22.9a.3.3 0 1 1-.3-.4.3.3 0 0 1 .3.4z" fill="#292b26"></path><g clip-path="url(#a)" fill="none" stroke="#292b26" stroke-miterlimit="10" stroke-width=".5"><path d="M25.4 20.2H32M25.4 24H32"></path></g><path d="M63.2 22.7v.5h-1.8l1-1a.9.9 0 0 0 .2-.6.3.3 0 0 0-.3-.3.2.2 0 0 0-.2.3.5.5 0 0 0 0 .1h-.6a.8.8 0 0 1 .8-.8.8.8 0 0 1 .9.7.9.9 0 0 1-.4.8l-.3.3zM65.3 22c0 .6-.3 1.3-1 1.3s-.9-.7-.9-1.2c0-.6.3-1.2 1-1.2s1 .6 1 1.2zM64 22c0 .3 0 .7.4.7s.3-.4.3-.6c0-.3 0-.7-.3-.7s-.4.4-.4.7zM67.4 22c0 .6-.3 1.3-1 1.3s-.9-.7-.9-1.2c0-.6.3-1.2 1-1.2s.9.6.9 1.2zm-1.3 0c0 .3 0 .7.4.7s.3-.4.3-.6c0-.3 0-.7-.3-.7s-.4.4-.4.7zM69.2 21.5a.5.5 0 0 1-.4.5.6.6 0 0 1 .5.6c0 .4-.5.7-.9.7s-.8-.3-.8-.7a.6.6 0 0 1 .4-.6.5.5 0 0 1-.3-.5.8.8 0 0 1 1.5 0zm-1 1a.3.3 0 1 0 .5 0 .3.3 0 1 0-.5 0zm0-1a.2.2 0 1 0 .2-.2.2.2 0 0 0-.2.2z" fill="#292b26"></path><g clip-path="url(#a)"><path fill="none" stroke="#292b26" stroke-miterlimit="10" stroke-width=".5" d="M61 20.1h8.8M61 24h8.8"></path><g clip-path="url(#b)" opacity=".3"><image width="1132" height="1257" transform="translate(32.4) scale(.02734)" xlink:href="Untitled-31.png"></image></g><path d="M35.2 13.7a1.3 1.3 0 0 1-.6-.2.3.3 0 0 1-.1-.1 6.1 6.1 0 0 1-.7-1.8 1.6 1.6 0 0 1 1.5-1.2 1 1 0 0 1 .6.2 3.7 3.7 0 0 1 1.1 1.9.3.3 0 0 1 0 .3 2.9 2.9 0 0 1-1.8.9" fill="#fdd09e"></path><path d="M35.3 10.7a.8.8 0 0 1 .4.1 3.5 3.5 0 0 1 1 1.7 2.6 2.6 0 0 1-1.5.9 1 1 0 0 1-.5-.1 6.8 6.8 0 0 1-.6-1.7 1.3 1.3 0 0 1 1.2-1m0-.5a1.9 1.9 0 0 0-1.8 1.5 5.9 5.9 0 0 0 .7 2 .6.6 0 0 0 .2.2 1.6 1.6 0 0 0 .8.2 3.1 3.1 0 0 0 2-1 .6.6 0 0 0 .1-.6 4 4 0 0 0-1.2-2 1.4 1.4 0 0 0-.8-.3" fill="#282828"></path><path d="M34 15l-.5-1.1s2-2.2 4-1.8l.4 1s-3.6 2.5-4 2" fill="#fff"></path><path d="M34 15l-.5-1.1s2-2.2 4-1.8l.4 1s-3.6 2.5-4 2z" fill="none" stroke="#282828" stroke-linecap="round" stroke-linejoin="round" stroke-width=".6"></path><path d="M46.5 32.2c-6.1 0-8.1-3.4-8.2-3.5a.3.3 0 0 1 0-.3l1.8-7c-6.2-1.9-6.7-6.2-6.7-6.4a.3.3 0 0 1 0-.2c1.5-2.1 2.9-2.6 3.8-2.6a2.2 2.2 0 0 1 1.1.3.3.3 0 0 1 .1.2c.8 3.6 4.5 4.7 4.5 4.7a.3.3 0 0 1 .1 0 68 68 0 0 0 8.9.5.3.3 0 0 1 .3.2l3.4 9.7a.3.3 0 0 1 0 .2c0 .2-1.4 3.6-7.7 4.1h-1.4z" fill="#fff"></path><path d="M37.2 12.5a1.9 1.9 0 0 1 1 .2c.7 3.9 4.7 5 4.7 5 .5.4 9 .5 9 .5l3.4 9.7s-1.2 3.4-7.4 3.9h-1.4c-6 0-8-3.3-8-3.3l2-7.3C34 19.4 33.7 15 33.7 15c1.4-2 2.7-2.5 3.5-2.5m0-.6c-1 0-2.4.5-4 2.7a.6.6 0 0 0 0 .4 6.4 6.4 0 0 0 1 2.7 10.2 10.2 0 0 0 5.5 3.9l-1.8 6.8a.6.6 0 0 0 .1.4c.1.2 2.2 3.7 8.5 3.7H48c6.4-.6 7.8-4.2 7.9-4.4a.6.6 0 0 0 0-.4L52.5 18a.6.6 0 0 0-.6-.4 76 76 0 0 1-8.7-.5.6.6 0 0 0-.2 0 7.1 7.1 0 0 1-1.9-1 5.6 5.6 0 0 1-2.4-3.5.6.6 0 0 0-.2-.4 2.5 2.5 0 0 0-1.3-.3" fill="#282828"></path><g clip-path="url(#c)" fill="#b3b7ba" opacity=".4"><path d="M36.9 16.7a2.9 2.9 0 0 1 1.4-3.3 6.2 6.2 0 0 1-.2-.7s-2-1.3-4.4 2.3c0 0 .4 4.4 6.8 6.2 0 0-2.9-2.2-3.6-4.5M40.5 21.2l-2 7.3a7.3 7.3 0 0 0 4.7 2.9c-4.1-4.3-2.7-10.2-2.7-10.2"></path></g><path fill="#fff" d="M47 20.4l-4.7 1.5-1.5 8.5"></path><path fill="none" stroke="#282828" stroke-linecap="round" stroke-linejoin="round" stroke-width=".6" d="M47 20.4l-4.7 1.5-1.5 8.5"></path><path fill="#fff" d="M40 21.8l1.6-4.8"></path><path fill="none" stroke="#282828" stroke-linecap="round" stroke-linejoin="round" stroke-width=".6" d="M40 21.8l1.6-4.8"></path><path d="M48 20.7a8.3 8.3 0 0 1-6-2.4 5.2 5.2 0 0 1-1.4-4.1 7.4 7.4 0 0 1 4.5-6 12.6 12.6 0 0 1 3.6-.5 6 6 0 0 1 5.6 3.2 8.3 8.3 0 0 1 .9 2.6 2.3 2.3 0 0 1 .8-.1 2.2 2.2 0 0 1 1.8.8 2.1 2.1 0 0 1 .2 2c-.5 1.5-1.5 1.9-2.2 1.9a2.8 2.8 0 0 1-1-.3c-.4.7-1.6 2.2-5.2 2.8a9.3 9.3 0 0 1-1.5.1" fill="#fdd09e"></path><path d="M48.7 8c6 0 6.2 6 6.2 6a2 2 0 0 1 1.1-.3 1.7 1.7 0 0 1 1.7 2.4c-.5 1.3-1.2 1.6-1.9 1.6a2.6 2.6 0 0 1-1.2-.3s-.6 2.2-5 3a9 9 0 0 1-1.5 0c-4 0-7.6-2.5-7.2-6.2a7.2 7.2 0 0 1 4.3-5.6 12.2 12.2 0 0 1 3.5-.6m0-.6a13 13 0 0 0-3.6.6 8.1 8.1 0 0 0-2.3 1.4 7.2 7.2 0 0 0-2.5 4.8 5.5 5.5 0 0 0 1.4 4.3 8.6 8.6 0 0 0 6.4 2.6 9.6 9.6 0 0 0 1.6-.2 9 9 0 0 0 4.5-1.9 4.3 4.3 0 0 0 .7-.8 3 3 0 0 0 1 .2 2.7 2.7 0 0 0 2.4-2.1A2.4 2.4 0 0 0 58 14a2.5 2.5 0 0 0-2-1 2.7 2.7 0 0 0-.6 0 8.5 8.5 0 0 0-.8-2.4 6.2 6.2 0 0 0-5.9-3.3" fill="#282828"></path><g clip-path="url(#d)" opacity=".3"><path d="M44.4 14.1c.3-3.4 2-5.5 3-6a14 14 0 0 0-2.2.5 7.2 7.2 0 0 0-4.3 5.6c-.4 4.2 4.3 6.9 8.7 6.1a11.6 11.6 0 0 0 2.2-.6c-4.4.6-7.8-1.5-7.4-5.6" fill="#d49a72"></path></g><path d="M42.5 16a3.1 3.1 0 0 1-2-.6 3 3 0 0 1-.8-3.6.2.2 0 0 1 .2-.1.2.2 0 0 1 .2.3.6.6 0 0 0 0 .5 2.1 2.1 0 0 0 1.6.6 1.8 1.8 0 0 0 .6 0 1.8 1.8 0 0 1 1.8.2c.8.7.9 1.2.7 1.6-.1.5-1 1-2.3 1z" fill="#292b26"></path><path d="M40 11.9c-.5 1 .8 1.4 1.7 1.4a2 2 0 0 0 .7 0 1.6 1.6 0 0 1 1.6.2c1.7 1.3.1 2.3-1.5 2.3a3 3 0 0 1-1.8-.6 2.8 2.8 0 0 1-.8-3.3m0-.4a.4.4 0 0 0-.3.2 3.2 3.2 0 0 0 .8 3.8 3.3 3.3 0 0 0 2.1.7 4 4 0 0 0 1.5-.3 1.7 1.7 0 0 0 1-1c.2-.4.1-1-.8-1.7a2 2 0 0 0-1.2-.5 2 2 0 0 0-.7.2 1.7 1.7 0 0 1-.6 0 2 2 0 0 1-1.4-.5.4.4 0 0 1 0-.4.4.4 0 0 0-.4-.5" fill="#282828"></path><path d="M44.6 10.8c-.4.6-1 1-1.2.8s-.3-.8.1-1.4 1-1 1.2-.9.2.8-.1 1.5" fill="#292b26"></path><path d="M45.8 12.4c.1-.3-.6-2.3-2.3-1.8s-1.3 4.8 2 3.5" fill="#fdd09e"></path><path d="M45.8 12.4a.4.4 0 0 0 0-.2 1.3 1.3 0 0 0 0-.1 2.3 2.3 0 0 0-.2-.3 2.7 2.7 0 0 0-.3-.4 1.8 1.8 0 0 0-1-.6 1.5 1.5 0 0 0-.5 0 1.8 1.8 0 0 0-.2 0 1 1 0 0 0-.3.1 1.4 1.4 0 0 0-.5.9 2.3 2.3 0 0 0 0 1 1.8 1.8 0 0 0 .5 1 1.5 1.5 0 0 0 .5.3h.2l.2.1h.1a3.3 3.3 0 0 0 1.2-.1 2.8 2.8 0 0 1-1.2.3H44h-.2a1.7 1.7 0 0 1-.6-.4 1.7 1.7 0 0 1-.4-.5 2.2 2.2 0 0 1-.3-.5 2.6 2.6 0 0 1 0-1.3 2 2 0 0 1 .3-.6 1.4 1.4 0 0 1 .5-.5 1.3 1.3 0 0 1 .3-.1 2.1 2.1 0 0 1 .3 0 1.6 1.6 0 0 1 .7 0 1.9 1.9 0 0 1 1 .7 2.6 2.6 0 0 1 .2.6 2.3 2.3 0 0 1 .1.3 1.4 1.4 0 0 1 0 .1.4.4 0 0 1 0 .2" fill="#282828"></path><path d="M50.2 11.5c-1-.7-2.5.3-2.5.3s.2-.2 1.3.2" fill="#fdd09e"></path><path d="M50.2 11.5a1.5 1.5 0 0 0-.7-.1 2.6 2.6 0 0 0-.6 0 5 5 0 0 0-.6.3 7 7 0 0 0-.5.3.2.2 0 0 1-.3-.3.3.3 0 0 1 .1 0 .6.6 0 0 1 .2-.1 1 1 0 0 1 .2 0 1.7 1.7 0 0 1 .4 0 2.4 2.4 0 0 1 .3.2 2.6 2.6 0 0 1 .3.2h-.3a8 8 0 0 0-.4-.1 2.4 2.4 0 0 0-.3 0 1 1 0 0 0-.1 0 .3.3 0 0 0-.1 0l-.2-.2a3.6 3.6 0 0 1 .6-.4 3.1 3.1 0 0 1 .7-.2 2 2 0 0 1 .3 0 1.5 1.5 0 0 1 .4 0 1 1 0 0 1 .6.4M43.7 8a1.5 1.5 0 0 1 .4-.6 1.3 1.3 0 0 1 .7-.4 1 1 0 0 1 .5 0 .9.9 0 0 1 .3.3 1 1 0 0 1 .3.7 3.2 3.2 0 0 0-.5-.4.7.7 0 0 0-.5-.1 2.1 2.1 0 0 0-.5.2l-.7.3" fill="#282828"></path><g clip-path="url(#e)" opacity=".5"><path d="M43 11.2a2.5 2.5 0 0 0 3 2s-1.3 2-2.8.6-.3-2.6-.3-2.6" fill="#d49a72"></path></g><path d="M47.2 10.4s.2.4 2.2 0 2.1 0 2.1 0" fill="#fdd09e"></path><path d="M47.4 10.2H47.8a3.4 3.4 0 0 0 .5.1 8.4 8.4 0 0 0 1.1 0 9 9 0 0 1 1.2-.1 3 3 0 0 1 .5 0 1.2 1.2 0 0 1 .3 0 .3.3 0 0 1 .2.3.3.3 0 0 0-.2-.2 1.1 1.1 0 0 0-.3 0 2.9 2.9 0 0 0-.5 0 8.8 8.8 0 0 0-1.1.3 8.8 8.8 0 0 1-1.1.2 3.9 3.9 0 0 1-.6 0 1.8 1.8 0 0 1-.4 0 1 1 0 0 1-.2 0 .7.7 0 0 1 0-.1.4.4 0 0 1-.1 0 .4.4 0 0 1-.1-.2.3.3 0 1 1 .5-.3" fill="#282828"></path><path d="M54 15.4a.6.6 0 0 1-.2 0c-.8-.4-.6-1.5-.4-2.3a3.8 3.8 0 0 0 .1-.4 3.5 3.5 0 0 1-.7-1.4l-.3-1.6a.2.2 0 0 1 0-.2.6.6 0 0 1 .6-.2 3.3 3.3 0 0 1 1.6.8c.2.2 1 .9 1 1.3a3 3 0 0 1-.8 1.4 9 9 0 0 1 0 1.2c-.2.9-.5 1.4-1 1.4z" fill="#8a221b"></path><path d="M53 9.5a4 4 0 0 1 2.5 1.9c0 .5-.8 1.3-.8 1.3s0 2.5-.7 2.5a.4.4 0 0 1-.2 0c-.9-.4 0-2.5-.1-2.6a3.3 3.3 0 0 1-.7-1.4l-.3-1.6a.4.4 0 0 1 .4-.1m0-.4a.8.8 0 0 0-.7.3.4.4 0 0 0 0 .3l.2 1.6a3.7 3.7 0 0 0 .7 1.4v.4c-.2.8-.5 2 .4 2.4a.8.8 0 0 0 .3 0c.8 0 1-1.1 1-1.5a9.3 9.3 0 0 0 .1-1.1 2.9 2.9 0 0 0 .8-1.5c0-.5-.8-1.2-1-1.4A3.3 3.3 0 0 0 53 9" fill="#282828"></path><path d="M46.8 15.8a2.7 2.7 0 0 1-2.1-.7 1 1 0 0 1-.3-.8 2.7 2.7 0 0 1 2.2-1.3 2.8 2.8 0 0 1 .9.1 6.6 6.6 0 0 0 2 .3c.4 0 2.1 0 2.3-1.2a.2.2 0 0 1 .2-.2.2.2 0 0 1 .2.2 2.6 2.6 0 0 1-.5 1.8 4.7 4.7 0 0 1-3.3 1.7 10.9 10.9 0 0 1-1.6 0" fill="#292b26"></path><path d="M52 12.2s.4 2.7-3.7 3.3a10.6 10.6 0 0 1-1.5 0c-2.5 0-2.2-1.2-2.2-1.2a2.5 2.5 0 0 1 2-1.1 2.6 2.6 0 0 1 .8.1 6.8 6.8 0 0 0 2 .3c1.3 0 2.4-.4 2.6-1.4m0-.3a.4.4 0 0 0-.4.3c-.1 1-1.7 1-2.2 1a6.4 6.4 0 0 1-1.9-.2 3 3 0 0 0-.9-.2 2.9 2.9 0 0 0-2.3 1.3.4.4 0 0 0 0 .1 1.2 1.2 0 0 0 .2 1 2.9 2.9 0 0 0 2.3.8 11 11 0 0 0 1.6-.2 5 5 0 0 0 3.4-1.7 2.8 2.8 0 0 0 .6-2 .4.4 0 0 0-.4-.2z" fill="#282828"></path><path d="M55 13.2a.3.3 0 0 1-.3-.2c-.6-1.7-2.2-4.6-7-4.6a7.8 7.8 0 0 0-1 0 .3.3 0 0 1-.2-.5l2.8-2.5a3.3 3.3 0 0 1 0-2.9A2.6 2.6 0 0 1 51.8 1a3.8 3.8 0 0 1 .5 0 3.1 3.1 0 0 1 2.9 2.7 3 3 0 0 1 2-.7 3.2 3.2 0 0 1 2 1 2.3 2.3 0 0 1 1 1.6 3.4 3.4 0 0 1-.9 2 3 3 0 0 1 1.8 2.7 2.7 2.7 0 0 1-1.7 2.5 3 3 0 0 1-1 .3 2.6 2.6 0 0 1-2.1-1l-1 1a.3.3 0 0 1-.3.1" fill="#fff"></path><path d="M51.8 1.4a3.5 3.5 0 0 1 .4 0A3 3 0 0 1 55 4.6a2.5 2.5 0 0 1 2.2-1.3 3 3 0 0 1 2 .8c1.7 1.6-.3 3.6-.3 3.6 2.6 1 2.5 4 .5 4.9a2.6 2.6 0 0 1-1 .2 2.4 2.4 0 0 1-2-1.2L55 12.9C53.6 8.6 49.6 8 47.7 8a8 8 0 0 0-1 0l3-2.6c-.9-1.2-.4-4.1 2-4.1m0-.7A3 3 0 0 0 49 2.4a3.7 3.7 0 0 0-.1 3l-2.6 2.3a.6.6 0 0 0 .5 1 7.5 7.5 0 0 1 .9 0 8.6 8.6 0 0 1 3.6.7 5.8 5.8 0 0 1 3.1 3.7.6.6 0 0 0 1 .2l.9-.8a2.8 2.8 0 0 0 2 .9 3.2 3.2 0 0 0 1.3-.3 3 3 0 0 0 1.8-2.8 3.3 3.3 0 0 0-1.6-2.8 3.5 3.5 0 0 0 .6-2 2.6 2.6 0 0 0-.9-1.8 3.5 3.5 0 0 0-2.4-1 3.2 3.2 0 0 0-1.7.5l-.2-.3A3.4 3.4 0 0 0 52.3.8a4.1 4.1 0 0 0-.5 0" fill="#282828"></path><path d="M59.8 5.8a2 2 0 0 0 0-.3" fill="#b3b7ba"></path><g clip-path="url(#f)" opacity=".4"><path d="M60 10.6a2.2 2.2 0 0 1-2.1-.2 1.1 1.1 0 0 0-1.6.3.7.7 0 0 1-1.2 0 8.2 8.2 0 0 0-6.8-4.1L46.7 8s6.5-.9 8.3 4.8l1.3-1.3a2.3 2.3 0 0 0 3 1 2.4 2.4 0 0 0 1.5-2.5 2.4 2.4 0 0 1-.7.5" fill="#b3b7ba"></path></g><path d="M50.5 9.5a1.3 1.3 0 0 1-.4 0 1.5 1.5 0 0 1-.7-.5 1 1 0 0 1-.8.2h-.2c-.5 0-.8-.1-.9-.4a1.2 1.2 0 0 1-.6.2 1.1 1.1 0 0 1-.6-.1.7.7 0 0 1-.4-.5 1 1 0 0 1 .4-.8.5.5 0 0 1 0-.4c.1-.2.3-.4.7-.5a1.4 1.4 0 0 1 .4 0 .7.7 0 0 1 .6.3 1.1 1.1 0 0 1 1-.5 1.3 1.3 0 0 1 .3 0 1 1 0 0 1 .7.6.7.7 0 0 1 0 .1 1.3 1.3 0 0 1 .7-.2 1.2 1.2 0 0 1 1 .5 1 1 0 0 1 .2 1 1 1 0 0 1-.7.5.8.8 0 0 1-.7.5" fill="#8a221b"></path><path d="M49 6.7a1 1 0 0 1 .2 0 .7.7 0 0 1 .5 1 1.5 1.5 0 0 1 1-.5 1 1 0 0 1 .8.4c.8 1-.4 1.2-.4 1.2a.6.6 0 0 1-.6.6 1 1 0 0 1-.3 0 1 1 0 0 1-.8-.8.4.4 0 0 0 0-.1.5.5 0 0 0 0 .1c0 .2-.1.5-.8.5h-.2c-1-.1-.7-.6-.7-.7a1.2 1.2 0 0 1-.8.4 1 1 0 0 1-.5 0c-.7-.5.2-1.2.2-1.2s-.4-.5.5-.7a1.2 1.2 0 0 1 .3 0 .6.6 0 0 1 .6.6s.3-.8 1-.8m0-.4a1.3 1.3 0 0 0-1 .4 1 1 0 0 0-.6-.2 1.6 1.6 0 0 0-.4 0 1 1 0 0 0-.9.7.7.7 0 0 0 0 .3 1.1 1.1 0 0 0-.4.9.8.8 0 0 0 .5.6 1.3 1.3 0 0 0 1.2 0 1.5 1.5 0 0 0 1 .4h.2a1.5 1.5 0 0 0 .7-.1 1.8 1.8 0 0 0 .8.4 1.5 1.5 0 0 0 .4 0 1 1 0 0 0 .9-.6 1 1 0 0 0 .7-.6 1.1 1.1 0 0 0-.3-1.1 1.4 1.4 0 0 0-1-.6 1.4 1.4 0 0 0-.7.2 1.1 1.1 0 0 0-.8-.6 1.5 1.5 0 0 0-.3 0" fill="#282828"></path><g clip-path="url(#g)" fill="#8a221b" opacity=".8"><path d="M51.6 7.8c-.2.3-.6.3-.6.3a.7.7 0 0 1-1 .5 1 1 0 0 1-.8-.7c0 .2 0 .6-1 .5-1 0-.6-.6-.6-.7a1 1 0 0 1-1.3.4.4.4 0 0 0 .1.6 1 1 0 0 0 1.3-.3s-.4.6.7.7c.8 0 1-.3 1-.5a1 1 0 0 0 .8.7.7.7 0 0 0 .9-.5s1.1-.1.5-1"></path></g><path d="M44 23.5a.6.6 0 1 1-.6-.8.7.7 0 0 1 .6.8M44 26.9a.6.6 0 1 1-.6-.7.7.7 0 0 1 .6.7M47.1 23a.6.6 0 1 1-.6-.8.7.7 0 0 1 .6.8" fill="#292b26"></path><path d="M44.2 23.3a.6.6 0 1 1-.6-.7.6.6 0 0 1 .6.7M44.2 26.5a.6.6 0 1 1-.6-.7.6.6 0 0 1 .6.7M47.3 22.8a.6.6 0 1 1-.5-.7.6.6 0 0 1 .5.7M47.2 26a.6.6 0 1 1-.6-.7.7.7 0 0 1 .6.8" fill="#fff"></path><ellipse cx="46.6" cy="26.1" rx=".6" ry=".8" fill="none" stroke="#010101" stroke-miterlimit="10" stroke-width=".1"></ellipse><path d="M55.4 27.5a1.3 1.3 0 0 1-.7-.2l-.7-.4c-1.8-.9-5.6-2.7-5.6-5.5 0-.1.5-1.8 3.6-1.9a6 6 0 0 1 4.1 2 6 6 0 0 1 1.7 3.2c0 1.2-1.2 2.8-2.4 2.8" fill="#fff"></path><path d="M52 19.8c3 0 5.5 3.7 5.5 5a2.7 2.7 0 0 1-2.1 2.4 1 1 0 0 1-.5-.2c-1.1-.6-6.2-2.6-6.2-5.6 0 0 .4-1.5 3.3-1.6m0-.6c-3.4.1-3.9 2-3.9 2a.6.6 0 0 0 0 .2c0 3 3.9 4.9 5.8 5.8l.6.4a1.6 1.6 0 0 0 .9.2 2.7 2.7 0 0 0 1.9-1 3.3 3.3 0 0 0 .9-2 6.1 6.1 0 0 0-1.9-3.4 6.3 6.3 0 0 0-4.2-2.2" fill="#282828"></path><g clip-path="url(#h)" opacity=".4"><path d="M55.5 24.8c-.9-.5-4.8-2-5.9-4.4a1.9 1.9 0 0 0-.9 1c0 3 5 5 6.2 5.6s2.6-1 2.6-2.3a1.7 1.7 0 0 0 0-.5c-.6.6-1.4 1-2 .6" fill="#b3b7ba"></path></g><path fill="#fff" d="M54.5 22v.2-.3zM48.8 24.9c-.5 4.1 2.6 4.6 4 4.6a5.5 5.5 0 0 0 .8 0s5.9-2.2 3.5-5.9a2.9 2.9 0 0 0-2.6-1.4c-2.6 0-5.7 2.7-5.7 2.7"></path><path d="M57.6 25c.4 2.8-4 4.5-4 4.5a5.5 5.5 0 0 1-.8 0c-1.4 0-4.5-.5-4-4.6a14.2 14.2 0 0 1 3.9-2.3 8.5 8.5 0 0 0-2.8.7 15 15 0 0 0-1.5 1 .6.6 0 0 0-.2.5 4.8 4.8 0 0 0 1 3.9 5 5 0 0 0 3.6 1.4 6.1 6.1 0 0 0 .9 0c.2-.1 3.6-1.4 4.4-3.7A3.2 3.2 0 0 0 58 24a1.1 1.1 0 0 0-.4 1" fill="#282828"></path><g clip-path="url(#i)" opacity=".4"><path d="M56.1 25.6s-3.9.6-4.7-2.5a15.3 15.3 0 0 0-2.6 1.8c-.7 5.4 4.8 4.6 4.8 4.6s4.5-1.7 4-4.6a10 10 0 0 1-1.5.7" fill="#b3b7ba"></path></g><path d="M48.8 24.9s1.1-1 3.5 1 1.3 3.6 1.3 3.6" fill="none" stroke="#282828" stroke-linecap="round" stroke-linejoin="round" stroke-width=".5"></path><path d="M47.3 31.1a2.2 2.2 0 0 1-.5 0 .7.7 0 0 1-.5-.4 1.2 1.2 0 0 1-.1-.7 1.2 1.2 0 0 1-1-.7 1.3 1.3 0 0 1 .3-1.3 1.9 1.9 0 0 1-.6-1.2.8.8 0 0 1 .2-.6 1.7 1.7 0 0 1 1-.5 1.8 1.8 0 0 1-.4-.7 1.2 1.2 0 0 1 .1-1 1.3 1.3 0 0 1 1.2-.7 1.4 1.4 0 0 1 .6.2.3.3 0 0 1 .2.3.8.8 0 0 0 .7.9 2.6 2.6 0 0 1 1.4 1l.9-.5a.3.3 0 0 1 .2 0 5.1 5.1 0 0 1 2.3 2 .3.3 0 0 1-.1.5l-2.3 1.5a4.2 4.2 0 0 1-3.6 2z" fill="#fdd09e"></path><path d="M47 23.6a1 1 0 0 1 .5.1 1.2 1.2 0 0 0 .9 1.3 2.2 2.2 0 0 1 1.4 1l1.1-.5a4.9 4.9 0 0 1 2.1 1.9L50.6 29a4 4 0 0 1-3.3 1.8 2 2 0 0 1-.4 0c-.7-.1-.3-1.1-.3-1.1h-.1a1 1 0 0 1-1-.5c-.3-.6.4-1.3.4-1.3a1.5 1.5 0 0 1-.7-1.2c0-.6 1.2-.7 1.6-.7h.2s-1.5-.8-1-1.8a1 1 0 0 1 1-.6m0-.6a1.6 1.6 0 0 0-1.5.9 1.5 1.5 0 0 0-.1 1.2 1.8 1.8 0 0 0 .2.4 1.6 1.6 0 0 0-.7.5 1 1 0 0 0-.3.8 2.2 2.2 0 0 0 .5 1.2 1.5 1.5 0 0 0-.1 1.5 1.5 1.5 0 0 0 .9.7 1.4 1.4 0 0 0 .1.7 1 1 0 0 0 .7.5 2.5 2.5 0 0 0 .6 0 4.6 4.6 0 0 0 3.8-2l2.3-1.5a.6.6 0 0 0 .1-.8 5.3 5.3 0 0 0-2.4-2.2.6.6 0 0 0-.4 0l-.7.4a3 3 0 0 0-1.4-1 .5.5 0 0 1-.5-.3.7.7 0 0 1 0-.2.6.6 0 0 0-.3-.6 1.7 1.7 0 0 0-.8-.2" fill="#282828"></path><path d="M44.6 15.4s-.6 2 2.4 1.6" fill="#fdd09e"></path><path d="M44.8 15.5a1.1 1.1 0 0 0 0 .2 1.4 1.4 0 0 0 0 .2 1.1 1.1 0 0 0 0 .3 1 1 0 0 0 .5.6 2.2 2.2 0 0 0 .8.2 5.2 5.2 0 0 0 .9 0 5.3 5.3 0 0 1-1 .1 2.4 2.4 0 0 1-.8 0 1.4 1.4 0 0 1-.5-.3 1.2 1.2 0 0 1-.3-.4 1.5 1.5 0 0 1-.1-.5 1.8 1.8 0 0 1 0-.3 1.5 1.5 0 0 1 0-.2zM49.5 5.3A5 5 0 0 1 53 7.6 6.8 6.8 0 0 0 48.8 6zM56.3 11.5s.1-.8-1.1-2c0 0 1 1.8.5 2.8a.8.8 0 0 0 .6-.8" fill="#282828"></path><g clip-path="url(#j)" opacity=".4"><path d="M59 4.1a3 3 0 0 0-1.6-.8 2.8 2.8 0 0 1-.2 2.8c-.6.8.3 1.5 1.7 1.6s2-2 .2-3.6" fill="#b3b7ba"></path></g><g clip-path="url(#k)" fill="#d49a72" opacity=".3"><path d="M47.4 25.3a1.6 1.6 0 0 1-.5-1.7 1 1 0 0 0-.8.6c-.5.9.6 1.6.9 1.8.5 0 1-.2.4-.7M46.7 27.5a4.8 4.8 0 0 0-1.5-.7A1.5 1.5 0 0 0 46 28v.1c.5 0 1.2-.2.8-.5M51 25.5l-.7.3c.8 1 1.2 2.2.5 2.3-1 .2-1.2 1.2-2.2 2.1a2.3 2.3 0 0 1-2.1.1.5.5 0 0 0 .4.5 4 4 0 0 0 3.7-1.8l2.4-1.6a4.9 4.9 0 0 0-2-1.9M45.5 29.1a1.1 1.1 0 0 0 1 .6 3.4 3.4 0 0 0 1-.6 8.4 8.4 0 0 1-2 0"></path></g><path d="M55.1 16.3s1 .2.9-.6-.8-.5-.8-.5.8-1.6 2-.4" fill="#fdd09e"></path><path d="M55.1 16.3a1.1 1.1 0 0 0 .6-.1.4.4 0 0 0 .1-.4.8.8 0 0 0-.1-.5.2.2 0 0 0-.2 0 .5.5 0 0 0-.2 0 .2.2 0 0 1-.2 0 .2.2 0 0 1 0-.2 2 2 0 0 1 .4-.5 1.2 1.2 0 0 1 .6-.4 1 1 0 0 1 .6.2 1.5 1.5 0 0 1 .5.4 2.2 2.2 0 0 0-.5-.3.8.8 0 0 0-.3 0 .7.7 0 0 0-.3 0 1 1 0 0 0-.4.3 1.7 1.7 0 0 0-.2.2 2 2 0 0 0-.1.3L55 15a.8.8 0 0 1 .2 0 .7.7 0 0 1 .2 0 .5.5 0 0 1 .4.1.8.8 0 0 1 .2.3 1.3 1.3 0 0 1 0 .4.7.7 0 0 1 0 .3.5.5 0 0 1-.4.3 1 1 0 0 1-.6-.1" fill="#282828"></path><path d="M33.8 12c-4 0-6.7-1.2-6.8-3-.2-2.1 3.2-4 7.7-4.3H36c4 0 6.7 1.2 6.9 3 0 2-3.3 4-7.8 4.3h-1.3" fill="#b3b7ba"></path><path d="M36 5c3.6 0 6.4 1 6.6 2.7 0 1.9-3.2 3.7-7.5 4h-1.3c-3.6 0-6.4-1.1-6.5-2.8-.2-1.8 3.2-3.6 7.4-4H36m0-.6V5v-.6h-1.4A14.6 14.6 0 0 0 29.1 6c-1.7.8-2.5 2-2.4 3 0 1 .8 2 2.3 2.6a12.7 12.7 0 0 0 4.8.8h1.4a14.6 14.6 0 0 0 5.6-1.5c1.6-.8 2.4-2 2.4-3.1-.1-1-1-2-2.4-2.5a12.7 12.7 0 0 0-4.8-.9" fill="#282828"></path><path d="M33.7 11.1c-3.7 0-6.4-1.2-6.6-3 0-1.9 3.2-3.7 7.5-4H36c3.7 0 6.5 1.1 6.6 2.9 0 2-3.2 3.8-7.5 4l-1.4.1" fill="#f1be56"></path><path d="M36 4.3c3.4 0 6.2 1.1 6.3 2.7 0 1.8-3.1 3.5-7.2 3.8h-1.4c-3.4 0-6.2-1-6.3-2.6 0-1.8 3.2-3.5 7.2-3.8H36m0-.7v.6-.6h-1.4a14.4 14.4 0 0 0-5.4 1.5c-1.6.8-2.4 1.9-2.4 3 .1 1 1 1.9 2.3 2.4a12.4 12.4 0 0 0 4.6.8h1.4a14.4 14.4 0 0 0 5.4-1.4C42.1 9 43 8 43 7c-.1-1-.9-1.9-2.3-2.5a12.4 12.4 0 0 0-4.6-.8" fill="#282828"></path><path d="M33.7 9.7c-3.5 0-5.5-1.1-5.6-2 0-1 2.5-2.6 6.6-3H36c3.5 0 5.5 1.2 5.6 2 0 .5-.6 1.2-1.7 1.7A13.1 13.1 0 0 1 35 9.7h-1.3" fill="#ffe7b2"></path><path d="M29.6 10.3s-.5-1.5 4.6-3c0 0-4.8 1.6-3.8 3.4 0 0-.9 0-.8-.4M37 10.7s.5-1-2.3-3.3a9.1 9.1 0 0 1 3 3.1s-.5.7-.8.2M42.6 7.3s.2-1.5-7-.2c0 0 6.7-.5 6.7.4l.3-.2M37 4s-1.3-.4-2.4 3c0 0 .3-3 2-3h.4M27.4 7.3s2.2-1.5 6.5-.4a10.4 10.4 0 0 0-6-.3s-.8.6-.5.7" fill="#292b26"></path><path d="M37.5 6.3a1 1 0 0 1-1-.5s0-.6 1.3-.6h.4c.6.1.9.2.9.4 0 .3-.9.6-1.4.7a2 2 0 0 1-.2 0" fill="#da3626"></path><path d="M37.8 5.3h.4c1.6.1.4.8-.5.9a1.9 1.9 0 0 1-.2 0 .9.9 0 0 1-.9-.4s0-.5 1.2-.5m0-.1a1.8 1.8 0 0 0-1.1.3.5.5 0 0 0-.2.3 1 1 0 0 0 1 .5 2 2 0 0 0 .2 0c.5 0 1.4-.3 1.4-.7 0-.2-.2-.4-.9-.4h-.4" fill="#282828"></path><path d="M32.9 6.2a1 1 0 0 1-1-.4s0-.6 1.3-.6h.4c.6 0 .9.1.9.3 0 .3-.9.6-1.3.7a2 2 0 0 1-.3 0" fill="#da3626"></path><path d="M33.2 5.2h.4c1.7.2.4.8-.5 1a1.9 1.9 0 0 1-.2 0 .9.9 0 0 1-.9-.4s0-.6 1.2-.6m0 0a1.8 1.8 0 0 0-1.1.2.5.5 0 0 0-.2.4 1 1 0 0 0 1 .5 2 2 0 0 0 .3 0c.4-.1 1.4-.4 1.3-.8 0-.2-.2-.3-.9-.4h-.4" fill="#282828"></path><path d="M37.6 8.4a1 1 0 0 1-1-.4s0-.6 1.4-.6h.4c.5 0 .8.1.8.3 0 .3-.9.6-1.3.7a2 2 0 0 1-.3 0" fill="#da3626"></path><path d="M38 7.4h.4c1.6.2.3.8-.5 1a1.9 1.9 0 0 1-.3 0 .9.9 0 0 1-.9-.4s0-.6 1.3-.6m0 0a1.8 1.8 0 0 0-1.2.2.5.5 0 0 0-.2.4 1 1 0 0 0 1 .5 2 2 0 0 0 .3 0c.5-.1 1.4-.4 1.4-.8 0-.2-.3-.3-1-.4H38" fill="#282828"></path><path d="M33.5 9.2a1 1 0 0 1-1-.5s.1-.6 1.4-.6h.4c.5 0 .8.2.8.4 0 .3-.8.6-1.3.6a2 2 0 0 1-.3 0" fill="#da3626"></path><path d="M33.9 8.2h.4c1.6.1.3.8-.5.9a1.9 1.9 0 0 1-.3 0 .9.9 0 0 1-.9-.4s0-.5 1.3-.5m0-.1a1.8 1.8 0 0 0-1.2.3.5.5 0 0 0-.2.3 1 1 0 0 0 1 .5 2 2 0 0 0 .3 0c.5 0 1.4-.4 1.4-.7 0-.3-.3-.4-1-.4H34" fill="#282828"></path><path d="M30.5 8.2a1 1 0 0 1-1-.4s0-.6 1.3-.6h.5c.5 0 .8.1.8.3 0 .3-.9.6-1.3.7a2 2 0 0 1-.3 0" fill="#da3626"></path><path d="M30.8 7.2h.5c1.6.2.3.8-.5 1a1.9 1.9 0 0 1-.3 0 .9.9 0 0 1-.9-.5s0-.5 1.2-.5m0-.1a1.8 1.8 0 0 0-1 .3.5.5 0 0 0-.3.3.1.1 0 0 0 0 .1 1 1 0 0 0 1 .5 2 2 0 0 0 .3 0c.5-.1 1.4-.4 1.4-.8 0-.2-.3-.3-1-.4h-.4" fill="#282828"></path></g></g></svg> 